<svg width="18" height="19" viewBox="0 0 18 19" fill="none" xmlns="http://www.w3.org/2000/svg">
<path d="M5.23115 15.7893C5.61438 16.865 7.13562 16.865 7.51885 15.7893L7.53389 15.7471C7.69721 15.2887 8.13126 14.9826 8.61792 14.9826H8.80029C9.8861 14.9826 10.3107 13.573 9.40558 12.9732C8.98572 12.695 8.81124 12.1618 8.98027 11.6873C9.34388 10.6667 8.20541 9.75228 7.30225 10.3507L7.05277 10.516C6.64193 10.7883 6.10807 10.7883 5.69723 10.516L5.44775 10.3507C4.54459 9.75228 3.40612 10.6667 3.76973 11.6873C3.93876 12.1618 3.76428 12.695 3.34442 12.9732C2.43928 13.573 2.8639 14.9826 3.94971 14.9826H4.13209C4.61874 14.9826 5.05279 15.2887 5.21611 15.7471L5.23115 15.7893Z" fill="#F26112"/>
<path d="M12.684 6.56921C12.9537 7.33042 14.0463 7.33042 14.316 6.5692C14.4313 6.24384 14.741 6.02099 15.0862 6.02099H15.2078C15.978 6.02099 16.2802 5.02204 15.6393 4.59507C15.3426 4.39742 15.2193 4.02033 15.3383 3.68431C15.5951 2.95982 14.7857 2.31341 14.146 2.73955L13.98 2.85013C13.6893 3.0438 13.3107 3.0438 13.02 2.85013L12.854 2.73955C12.2143 2.31341 11.4049 2.95982 11.6617 3.68431C11.7807 4.02033 11.6574 4.39742 11.3607 4.59507C10.7198 5.02204 11.022 6.02099 11.7922 6.02099H11.9138C12.259 6.02099 12.5687 6.24384 12.684 6.56921Z" fill="#F26112"/>
<path d="M2.74042 6.76678C3.03056 7.50981 4.09444 7.50981 4.38458 6.76678C4.47285 6.54074 4.65645 6.36176 4.88546 6.28146C5.62787 6.02112 5.62787 4.97118 4.88546 4.71085C4.65645 4.63055 4.47285 4.45157 4.38458 4.22552C4.09444 3.4825 3.03056 3.4825 2.74042 4.22552C2.65215 4.45157 2.46855 4.63055 2.23954 4.71085C1.49713 4.97118 1.49713 6.02112 2.23954 6.28146C2.46855 6.36176 2.65215 6.54074 2.74042 6.76678Z" fill="#FBBC05"/>
<path d="M12.1506 10.7435C12.3665 11.2854 13.1335 11.2854 13.3494 10.7435L13.3568 10.7249C13.4217 10.5621 13.5543 10.4356 13.7201 10.3787C14.2613 10.1926 14.2613 9.42713 13.7201 9.24109C13.5543 9.18413 13.4217 9.0577 13.3568 8.89489L13.3494 8.87624C13.1335 8.33436 12.3665 8.33436 12.1506 8.87624L12.1432 8.89489C12.0783 9.0577 11.9457 9.18413 11.7799 9.24109C11.2387 9.42713 11.2387 10.1926 11.7799 10.3787C11.9457 10.4356 12.0783 10.5621 12.1432 10.7249L12.1506 10.7435Z" fill="#FBBC05"/>
<ellipse cx="0.75" cy="0.750204" rx="0.75" ry="0.750204" transform="matrix(1 0 0 -1 3.375 19)" fill="#FE0000"/>
<ellipse cx="1.3125" cy="1.31286" rx="1.3125" ry="1.31286" transform="matrix(1 0 0 -1 7.5 5.49609)" fill="#FE0000"/>
</svg>
