<svg width="18" height="19" viewBox="0 0 18 19" fill="none" xmlns="http://www.w3.org/2000/svg">
<path d="M5.23119 3.20968C5.61447 2.13413 7.13553 2.13413 7.51881 3.20968L7.53389 3.252C7.69722 3.7103 8.13116 4.01634 8.6177 4.01634H8.80058C9.88614 4.01634 10.3106 5.42561 9.40557 6.02512C8.98573 6.30323 8.81127 6.83646 8.98032 7.31084C9.34392 8.33116 8.20587 9.24551 7.30286 8.64733L7.05266 8.48158C6.64186 8.20946 6.10814 8.20946 5.69734 8.48158L5.44714 8.64733C4.54413 9.24551 3.40608 8.33116 3.76968 7.31084C3.93873 6.83646 3.76427 6.30323 3.34442 6.02512C2.43943 5.42561 2.86386 4.01634 3.94942 4.01634H4.1323C4.61884 4.01634 5.05278 3.7103 5.21611 3.252L5.23119 3.20968Z" fill="#F26112"/>
<path d="M12.684 12.4272C12.9537 11.6661 14.0463 11.6661 14.316 12.4272C14.4313 12.7525 14.7409 12.9753 15.086 12.9753H15.208C15.978 12.9753 16.2801 13.974 15.6393 14.4008C15.3426 14.5984 15.2193 14.9755 15.3384 15.3114C15.5951 16.0357 14.786 16.6821 14.1464 16.2561L13.9799 16.1452C13.6893 15.9517 13.3107 15.9517 13.0201 16.1452L12.8536 16.2561C12.214 16.6821 11.4049 16.0357 11.6616 15.3114C11.7807 14.9755 11.6574 14.5984 11.3607 14.4008C10.7199 13.974 11.022 12.9753 11.792 12.9753H11.914C12.2591 12.9753 12.5687 12.7525 12.684 12.4272Z" fill="#F26112"/>
<path d="M2.74042 12.2297C3.0306 11.4868 4.0944 11.4868 4.38458 12.2297C4.47285 12.4557 4.65642 12.6346 4.88537 12.7149C5.62768 12.9751 5.62768 14.0249 4.88537 14.2851C4.65642 14.3654 4.47285 14.5443 4.38458 14.7703C4.0944 15.5132 3.0306 15.5132 2.74042 14.7703C2.65215 14.5443 2.46858 14.3654 2.23963 14.2851C1.49732 14.0249 1.49732 12.9751 2.23963 12.7149C2.46858 12.6346 2.65215 12.4557 2.74042 12.2297Z" fill="#FBBC05"/>
<path d="M12.1506 8.25405C12.3665 7.71225 13.1335 7.71225 13.3494 8.25405L13.3568 8.27277C13.4217 8.43553 13.5543 8.5619 13.72 8.61884C14.2612 8.8048 14.2612 9.5702 13.72 9.75616C13.5543 9.8131 13.4217 9.93947 13.3568 10.1022L13.3494 10.121C13.1335 10.6628 12.3665 10.6628 12.1506 10.121L12.1432 10.1022C12.0783 9.93947 11.9457 9.8131 11.78 9.75616C11.2388 9.5702 11.2388 8.8048 11.78 8.61884C11.9457 8.5619 12.0783 8.43553 12.1432 8.27277L12.1506 8.25405Z" fill="#FBBC05"/>
<circle cx="4.125" cy="0.75" r="0.75" fill="#FE0000"/>
<circle cx="8.8125" cy="14.8125" r="1.3125" fill="#FE0000"/>
</svg>
