<svg width="25" height="24" viewBox="0 0 25 24" fill="none" xmlns="http://www.w3.org/2000/svg">
<path fill-rule="evenodd" clip-rule="evenodd" d="M9.29031 0.837209C9.29031 0.615168 9.3803 0.40222 9.54047 0.245213C9.70065 0.0882058 9.9179 0 10.1444 0H14.6997C14.9262 0 15.1435 0.0882058 15.3036 0.245213C15.4638 0.40222 15.5538 0.615168 15.5538 0.837209C15.5538 1.05925 15.4638 1.2722 15.3036 1.42921C15.1435 1.58621 14.9262 1.67442 14.6997 1.67442H10.1444C9.9179 1.67442 9.70065 1.58621 9.54047 1.42921C9.3803 1.2722 9.29031 1.05925 9.29031 0.837209ZM12.4221 3.90698C9.93028 3.90698 7.54057 4.87724 5.77862 6.60432C4.01668 8.3314 3.02683 10.6738 3.02683 13.1163C3.02683 15.5587 4.01668 17.9012 5.77862 19.6282C7.54057 21.3553 9.93028 22.3256 12.4221 22.3256C14.9138 22.3256 17.3035 21.3553 19.0655 19.6282C20.8274 17.9012 21.8173 15.5587 21.8173 13.1163C21.8173 10.6738 20.8274 8.3314 19.0655 6.60432C17.3035 4.87724 14.9138 3.90698 12.4221 3.90698ZM1.3186 13.1163C1.3186 7.10512 6.28953 2.23256 12.4221 2.23256C18.5546 2.23256 23.5255 7.10512 23.5255 13.1163C23.5255 19.1274 18.5546 24 12.4221 24C6.28953 24 1.3186 19.1274 1.3186 13.1163ZM12.4221 7.81395C12.6486 7.81395 12.8658 7.90216 13.026 8.05917C13.1862 8.21618 13.2762 8.42912 13.2762 8.65116V13.1163C13.2762 13.3383 13.1862 13.5513 13.026 13.7083C12.8658 13.8653 12.6486 13.9535 12.4221 13.9535C12.1955 13.9535 11.9783 13.8653 11.8181 13.7083C11.6579 13.5513 11.5679 13.3383 11.5679 13.1163V8.65116C11.5679 8.42912 11.6579 8.21618 11.8181 8.05917C11.9783 7.90216 12.1955 7.81395 12.4221 7.81395Z" fill="#0072DC"/>
</svg>
